<svg id="visual" viewBox="0 0 245 350" width="245" height="350" xmlns="http://www.w3.org/2000/svg" xmlns:xlink="http://www.w3.org/1999/xlink" version="1.1"><rect x="0" y="0" width="245" height="350" fill="#ffffff"></rect><path d="M0 306L2.5 305.8C5 305.7 10 305.3 15.2 303.7C20.3 302 25.7 299 30.8 295.7C36 292.3 41 288.7 46 289C51 289.3 56 293.7 61.2 294.3C66.3 295 71.7 292 76.8 294C82 296 87 303 92 304.5C97 306 102 302 107.2 297.7C112.3 293.3 117.7 288.7 122.8 290C128 291.3 133 298.7 138 298.5C143 298.3 148 290.7 153 286.8C158 283 163 283 168.2 286.7C173.3 290.3 178.7 297.7 183.8 302.2C189 306.7 194 308.3 199 304.3C204 300.3 209 290.7 214.2 287.2C219.3 283.7 224.7 286.3 229.8 288C235 289.7 240 290.3 242.5 290.7L245 291L245 351L242.5 351C240 351 235 351 229.8 351C224.7 351 219.3 351 214.2 351C209 351 204 351 199 351C194 351 189 351 183.8 351C178.7 351 173.3 351 168.2 351C163 351 158 351 153 351C148 351 143 351 138 351C133 351 128 351 122.8 351C117.7 351 112.3 351 107.2 351C102 351 97 351 92 351C87 351 82 351 76.8 351C71.7 351 66.3 351 61.2 351C56 351 51 351 46 351C41 351 36 351 30.8 351C25.7 351 20.3 351 15.2 351C10 351 5 351 2.5 351L0 351Z" fill="#656565" stroke-linecap="round" stroke-linejoin="miter"></path></svg>